<?xml version="1.0" encoding="UTF-8"?>
<svg width="306px" height="68px" viewBox="0 0 306 68" version="1.1" xmlns="http://www.w3.org/2000/svg" xmlns:xlink="http://www.w3.org/1999/xlink">
    <!-- Generator: Sketch 50.2 (55047) - http://www.bohemiancoding.com/sketch -->
    <title>Group 3</title>
    <desc>Created with Sketch.</desc>
    <defs></defs>
    <g id="Page-1" stroke="none" stroke-width="1" fill="none" fill-rule="evenodd">
        <g id="Group-3" fill="#000000">
            <path d="M19.5727781,8.78271594 C16.9316788,8.95452373 14.8569808,10.8832941 14.422047,13.4183739 L8.24116973,55.1392957 C8.16174501,56.0152686 8.26756753,56.9694451 8.75624284,57.7146612 C9.68941955,60.6516176 12.830328,62.0386867 15.4521932,60.8050998 L54.5977494,45.8679797 C57.112205,44.7388312 58.5265407,42.2809684 58.2032612,39.6871024 L53.5676032,11.3580815 C53.3586854,8.53332031 50.8655216,6.53575904 47.901799,6.7224235 L19.5727781,8.78271594 Z M52.537457,53.0790032 C52.4039171,54.7664414 52.3818884,56.2485846 52.537457,57.7146612 C51.1070706,63.2388411 46.2210809,67.1082691 40.6907755,66.9859771 C21.7048265,67.4067236 11.5750553,67.4067236 10.3014622,66.9859771 C4.69432969,66.0315114 0.493443011,61.4665762 0,55.6543688 L0,27.3253478 C1.17114066e-13,22.306906 1.17114066e-13,14.9635932 7.72609662,14.9635932 L8.24116973,12.3882277 C8.94779275,6.71660414 13.5212419,2.48534324 19.057705,2.08676553 L47.901799,0.0264730993 C53.9577716,-0.383024075 59.4536836,3.99914749 60.2635536,10.3279353 L64.8992116,38.6569562 C65.6118466,44.0198453 62.4940952,49.4118084 57.173115,51.5337839 L52.537457,53.0790032 Z" id="Combined-Shape-Copy-3" fill-rule="nonzero" transform="translate(32.500000, 33.650768) scale(-1, -1) translate(-32.500000, -33.650768) "></path>
            <path d="M118.973008,15.0007033 L118.973008,15 C126.320664,15 131.594102,18.65625 131.594102,29.765625 L131.594102,50.8945312 L120.344102,50.8941799 L120.344102,32.5429688 C120.344102,26.7425389 118.480821,25.0550389 114.719453,25.0550389 C110.887422,25.0550389 108.25,27.7269139 108.25,33.2112889 L108.25,50.8945312 L97,50.8945312 L97,15.668672 L108.25,15.668672 L108.25,19.9225783 L108.320312,19.9225783 C111.098008,16.6882033 114.894883,15.0007033 118.973008,15.0007033 Z M155.922578,51.5980082 L155.922578,51.5973043 C144.601914,51.5973043 136.903046,44.0035543 136.903046,33.3160543 C136.903046,22.6292576 144.601914,15.0003514 155.922578,15.0003514 C167.101914,15.0003514 174.906601,22.4882812 174.906601,33.3164062 C174.906601,44.1100783 167.101914,51.5980082 155.922578,51.5980082 Z M155.922226,41.5777731 C160.211119,41.5775848 163.550429,38.132329 163.550429,33.3160543 C163.550429,28.4293356 160.316054,25.054687 155.921874,25.054687 C151.386718,25.054687 148.257812,28.5351557 148.257812,33.3160543 C148.257812,38.0268672 151.492016,41.5775852 155.922226,41.5777731 Z M155.922226,41.5777731 C155.922343,41.5777731 155.922461,41.5777731 155.922578,41.5777731 L155.921874,41.5777731 C155.921992,41.5777731 155.922109,41.5777731 155.922226,41.5777731 Z M202.187851,15.0007033 L202.187499,15.0003514 C202.292617,15.0003514 202.469101,15.0003514 202.574219,15.0355076 L202.574219,27.1647652 C201.554688,27.0944527 200.5,27.0944527 199.9375,27.0944527 C194.59375,27.0944527 191.851562,30.4691014 191.851562,35.0745701 L191.851562,50.8945312 L180.601562,50.8945312 L180.601562,15.668672 L191.851562,15.668672 L191.851562,20.3796095 L191.992539,20.3796095 C194.664414,16.8639845 198.320664,15.0007033 202.187851,15.0007033 Z M250.457383,15.0007033 L250.457031,15.0007027 C257.874999,15.0007027 262.937499,19.254609 262.937499,30.363984 L262.937499,50.8948826 L251.722656,50.8948826 L251.722656,33.0007027 C251.722656,28.3249215 250.457031,25.0553902 246.589843,25.0553902 C243.320312,25.0553902 240.718749,27.7624215 240.718749,33.2467965 L240.718749,50.8948826 L229.503906,50.8948826 L229.503906,33.0007027 C229.503906,28.3249215 228.167968,25.0553902 224.335937,25.0553902 C220.855468,25.0553902 218.288711,27.7624215 218.288711,33.2467965 L218.288711,50.8948826 L207.038711,50.8948826 L207.038711,15.6690234 L218.288711,15.6690234 L218.288711,19.6413283 L218.465195,19.6413283 C221.13707,16.5827345 224.6875,15.0007033 228.308594,15.0007033 C232.632812,15.0007033 236.219101,16.512422 238.398789,20.0628519 L238.57457,20.0628519 C241.457383,16.7233595 245.60582,15.0007033 250.457383,15.0007033 Z M294.08664,15.6690239 L305.370742,15.6693758 L305.370742,50.8952351 L294.683945,50.8952351 L294.683945,47.0987114 L294.542617,47.0987114 C292.292617,50.0521878 288.987929,51.5635552 284.769179,51.5635552 C275.066406,51.5635552 268.175781,44.2158989 268.175781,33.3174614 C268.175781,22.5596489 275.136718,15.0010552 284.242538,15.0010552 C288.039062,15.0010552 291.449218,16.4776177 293.945312,19.3948832 L294.08664,19.3948832 L294.08664,15.6690239 Z M287.089843,41.6498446 L287.089843,41.6501965 C291.203124,41.6501965 294.542617,38.3806652 294.542617,33.3526182 C294.542617,28.5014071 291.343749,24.9857821 287.124999,24.9857821 C282.835937,24.9857821 279.566406,28.3256258 279.566406,33.3526182 C279.566406,38.3096495 282.694961,41.6498446 287.089843,41.6498446 Z" id="norma-copy-4"></path>
        </g>
    </g>
</svg>