<?xml version="1.0" encoding="UTF-8"?>
<svg width="392px" height="110px" viewBox="0 0 392 110" version="1.1" xmlns="http://www.w3.org/2000/svg" xmlns:xlink="http://www.w3.org/1999/xlink">
    <!-- Generator: Sketch 50.2 (55047) - http://www.bohemiancoding.com/sketch -->
    <title>Group 3</title>
    <desc>Created with Sketch.</desc>
    <defs></defs>
    <g id="Page-1" stroke="none" stroke-width="1" fill="none" fill-rule="evenodd">
        <g id="Group-3" transform="translate(-5.000000, -3.000000)" fill="#000000">
            <path d="M36.6287668,18.2102005 C32.2813699,18.4930057 28.8663011,21.6678696 28.1503758,25.8407524 L17.9763065,94.5157199 C17.845569,95.9576203 18.0197588,97.5282481 18.8241456,98.7549154 C20.3602066,103.58931 25.5303173,105.872503 29.846054,103.84195 L94.2818259,79.254616 C98.4207601,77.3959745 100.748836,73.350195 100.2167,69.0805468 L92.5861477,22.449396 C92.2422572,17.7996814 88.1383704,14.511584 83.2599175,14.8188441 L36.6287668,18.2102005 Z M90.8904695,91.1243635 C90.6706553,93.901981 90.6343949,96.3416715 90.8904695,98.7549154 C88.5359735,107.848024 80.4933616,114.217319 71.3901701,114.016019 C40.1382375,114.708591 23.4640685,114.708591 21.3676629,114.016019 C12.1380097,112.444915 5.22311562,104.930777 4.41088087,95.363559 L4.41088087,48.7324083 C4.41088087,40.4717728 4.41088087,28.3842698 17.1284674,28.3842698 L17.9763065,24.1450742 C19.1394475,14.8092651 26.6676002,7.84437333 35.7809277,7.18829216 L83.2599175,3.79693574 C93.2283866,3.12288052 102.274965,10.3361797 103.608056,20.7537178 L111.238608,67.3848685 C112.411645,76.2124835 107.279652,85.087956 98.5210214,88.5808461 L90.8904695,91.1243635 Z" id="Combined-Shape-Copy-3" fill-rule="nonzero" transform="translate(57.907696, 59.144404) scale(-1, -1) rotate(4.000000) translate(-57.907696, -59.144404) "></path>
            <path d="M167.017463,37.0008647 L167.017464,37 C176.051959,37 182.536047,41.495634 182.536047,55.155445 L182.536047,81.1350223 L168.703327,81.1345903 L168.703327,58.5703978 C168.703327,51.4383336 166.412282,49.3634256 161.787399,49.3634256 C157.075629,49.3634256 153.83272,52.6486966 153.83272,59.3921476 L153.83272,81.1350223 L140,81.1350223 L140,37.8221825 L153.83272,37.8221825 L153.83272,43.0526797 L153.919175,43.0526797 C157.334559,39.0757727 162.003102,37.0008647 167.017463,37.0008647 Z M212.449735,82 L212.449735,81.9991346 C198.530129,81.9991346 189.063793,72.6620486 189.063793,59.5209646 C189.063793,46.3807453 198.530129,37.000432 212.449735,37.000432 C226.195569,37.000432 235.792018,46.2074043 235.792018,59.5213973 C235.792018,72.7930278 226.195569,82 212.449735,82 Z M212.449303,69.6793683 C217.722819,69.6791368 221.828752,65.442936 221.828752,59.5209646 C221.828752,53.5123768 217.851845,49.3629929 212.44887,49.3629929 C206.872555,49.3629929 203.02533,53.6424906 203.02533,59.5209646 C203.02533,65.3132628 207.002026,69.6791373 212.449303,69.6793683 Z M212.449303,69.6793683 C212.449447,69.6793683 212.449591,69.6793683 212.449735,69.6793683 L212.44887,69.6793683 C212.449015,69.6793683 212.449159,69.6793683 212.449303,69.6793683 Z M269.336364,37.0008647 L269.335931,37.000432 C269.465181,37.000432 269.682182,37.000432 269.811432,37.0436593 L269.811432,51.9574926 C268.557842,51.8710381 267.261024,51.8710381 266.569388,51.8710381 C259.998846,51.8710381 256.627121,56.0204221 256.627121,61.6831918 L256.627121,81.1350223 L242.794401,81.1350223 L242.794401,37.8221825 L256.627121,37.8221825 L256.627121,43.614634 L256.800462,43.614634 C260.085733,39.291909 264.581367,37.0008647 269.336364,37.0008647 Z M328.687379,37.0008647 L328.686946,37.0008641 C337.807896,37.0008641 344.03262,42.2313613 344.03262,55.8911723 L344.03262,81.1354543 L330.243127,81.1354543 L330.243127,59.1332161 C330.243127,53.3839918 328.686946,49.3638576 323.931948,49.3638576 C319.911814,49.3638576 316.712998,52.6923558 316.712998,59.4358068 L316.712998,81.1354543 L302.923505,81.1354543 L302.923505,59.1332161 C302.923505,53.3839918 301.280869,49.3638576 296.569099,49.3638576 C292.289601,49.3638576 289.13358,52.6923558 289.13358,59.4358068 L289.13358,81.1354543 L275.30086,81.1354543 L275.30086,37.8226145 L289.13358,37.8226145 L289.13358,42.7068617 L289.350581,42.7068617 C292.635852,38.946091 297.001372,37.0008647 301.453779,37.0008647 C306.770731,37.0008647 311.180342,38.8596365 313.860432,43.2251567 L314.076568,43.2251567 C317.621203,39.119 322.722018,37.0008647 328.687379,37.0008647 Z M382.332828,37.8226152 L396.207478,37.8230479 L396.207478,81.1358877 L383.067259,81.1358877 L383.067259,76.4677767 L382.893485,76.4677767 C380.126941,80.0992978 376.06358,81.9576375 370.87631,81.9576375 C358.946021,81.9576375 350.47348,72.9231422 350.47348,59.5226947 C350.47348,46.2951562 359.032475,37.0012974 370.228765,37.0012974 C374.896876,37.0012974 379.089919,38.8168419 382.159054,42.403839 L382.332828,42.403839 L382.332828,37.8226152 Z M373.72974,69.7679857 L373.72974,69.7684184 C378.787329,69.7684184 382.893485,65.7482841 382.893485,59.5659226 C382.893485,53.6009941 378.960238,49.2782691 373.772968,49.2782691 C368.499243,49.2782691 364.479109,53.3848579 364.479109,59.5659226 C364.479109,65.6609649 368.325902,69.7679857 373.72974,69.7679857 Z" id="norma-copy-4"></path>
        </g>
    </g>
</svg>